<svg xmlns="http://www.w3.org/2000/svg" viewBox="0 0 1027.66 822.13"><defs><style>.cls-1{fill:#bfa68f;}.cls-2{fill:#d9c9ba;}</style></defs><g id="Слой_2" data-name="Слой 2"><g id="Слой_1-2" data-name="Слой 1"><path class="cls-1" d="M924.9,102.77A102.77,102.77,0,0,0,822.13,205.53h205.53A102.76,102.76,0,0,0,924.9,102.77Z"/><path class="cls-2" d="M924.9,102.77A102.77,102.77,0,0,0,1027.66,0H822.13A102.77,102.77,0,0,0,924.9,102.77Z"/><path class="cls-2" d="M924.9,719.36A102.77,102.77,0,0,0,822.13,822.13h205.53A102.77,102.77,0,0,0,924.9,719.36Z"/><circle class="cls-1" cx="924.9" cy="616.6" r="102.77"/><path class="cls-2" d="M822.13,616.6a102.77,102.77,0,1,0-205.53,0Z"/><path class="cls-2" d="M822.13,411.07h0a102.77,102.77,0,0,0,205.53,0h0V205.53a102.77,102.77,0,0,0,0,205.54H822.13a102.77,102.77,0,0,0,0-205.54h0V0a102.77,102.77,0,1,0,0,205.53,102.77,102.77,0,1,0,0,205.54H616.6a102.77,102.77,0,0,0,0-205.54A102.77,102.77,0,0,0,616.6,0V411.07h0a102.77,102.77,0,0,0,205.53,0Z"/><path class="cls-2" d="M719.36,719.36A102.77,102.77,0,0,0,822.13,822.13V616.6A102.77,102.77,0,0,0,719.36,719.36Z"/><path class="cls-2" d="M513.83,102.77A102.76,102.76,0,0,0,411.07,205.53H616.6A102.77,102.77,0,0,0,513.83,102.77Z"/><path class="cls-1" d="M513.83,102.77A102.77,102.77,0,0,0,616.6,0H411.07A102.77,102.77,0,0,0,513.83,102.77Z"/><circle class="cls-1" cx="513.83" cy="308.3" r="102.77"/><circle class="cls-1" cx="102.77" cy="102.77" r="102.77" transform="translate(-42.57 102.77) rotate(-45)"/><path class="cls-2" d="M513.83,513.83A102.76,102.76,0,0,0,411.07,411.07V616.6A102.77,102.77,0,0,0,513.83,513.83Z"/><path class="cls-1" d="M616.6,822.13a102.77,102.77,0,1,0-205.53,0V616.6a102.77,102.77,0,1,0,0,205.53H616.6Z"/><path class="cls-2" d="M513.83,719.36A102.76,102.76,0,0,0,616.6,616.6V822.13a102.77,102.77,0,0,0,0-205.53h0V411.07a102.77,102.77,0,1,0,0,205.53H411.07A102.76,102.76,0,0,0,513.83,719.36Z"/><path class="cls-2" d="M308.3,102.77A102.77,102.77,0,0,0,205.53,0V205.53h0a102.77,102.77,0,1,0,205.54,0h0V0a102.77,102.77,0,1,0,0,205.53H205.54A102.76,102.76,0,0,0,308.3,102.77Z"/><circle class="cls-1" cx="308.3" cy="411.07" r="102.77"/><path class="cls-2" d="M308.3,513.83A102.77,102.77,0,0,0,205.53,616.6H411.07A102.77,102.77,0,0,0,308.3,513.83Z"/><path class="cls-1" d="M205.53,616.6V822.13a102.77,102.77,0,1,0,0-205.53Z"/><path class="cls-2" d="M102.77,513.83A102.77,102.77,0,0,0,0,616.6H205.53A102.77,102.77,0,0,0,102.77,513.83Z"/><path class="cls-2" d="M205.53,411.07h0V205.53a102.77,102.77,0,0,0,0,205.54H0A102.78,102.78,0,0,0,102.77,308.3,102.77,102.77,0,0,0,0,205.53V411.07H0a102.77,102.77,0,0,0,205.53,0Z"/><path class="cls-1" d="M102.77,719.36A102.77,102.77,0,0,0,205.53,822.13V616.6A102.76,102.76,0,0,0,102.77,719.36Z"/><path class="cls-2" d="M102.77,719.36A102.77,102.77,0,0,0,0,616.6V822.13A102.77,102.77,0,0,0,102.77,719.36Z"/><path class="cls-2" d="M69.81,146.19a2.32,2.32,0,0,1-2-.92,1.36,1.36,0,0,1-.06-1.76l58.73-81.77c1.06-1.38,2-2.07,2.8-2.07h6.1a2.5,2.5,0,0,1,2.07.91,1.25,1.25,0,0,1,0,1.77L78.7,144.12c-.89,1.38-1.82,2.07-2.8,2.07Zm9.75-47.65A11.82,11.82,0,0,1,71,95.43a10.41,10.41,0,0,1-3.23-7.86V69.9a10.57,10.57,0,0,1,3.23-8,11.85,11.85,0,0,1,8.59-3.1A11.72,11.72,0,0,1,88,61.92a10.61,10.61,0,0,1,3.23,8V87.57A10.45,10.45,0,0,1,88,95.43,11.69,11.69,0,0,1,79.56,98.54Zm0-8.16c1.38,0,2.07-.86,2.07-2.56V69.66c0-1.79-.69-2.68-2.07-2.68s-2.2.89-2.2,2.68V87.82C77.36,89.52,78.09,90.38,79.56,90.38Zm46.3,56.42a11.88,11.88,0,0,1-8.59-3.11,10.45,10.45,0,0,1-3.23-7.86V118.16a10.59,10.59,0,0,1,3.23-8,11.88,11.88,0,0,1,8.59-3.11,11.71,11.71,0,0,1,8.47,3.11,10.59,10.59,0,0,1,3.23,8v17.67a10.45,10.45,0,0,1-3.23,7.86A11.71,11.71,0,0,1,125.86,146.8Zm0-8.17c1.38,0,2.07-.85,2.07-2.56V117.92c0-1.79-.69-2.68-2.07-2.68s-2.19.89-2.19,2.68v18.15C123.67,137.78,124.4,138.63,125.86,138.63Z"/><path class="cls-2" d="M172.81,763.19a2.32,2.32,0,0,1-2-.92,1.36,1.36,0,0,1-.06-1.76l58.73-81.77c1.06-1.38,2-2.07,2.8-2.07h6.1a2.5,2.5,0,0,1,2.07.91,1.25,1.25,0,0,1,0,1.77L181.7,761.12c-.89,1.38-1.82,2.07-2.8,2.07Zm9.75-47.65a11.82,11.82,0,0,1-8.59-3.11,10.41,10.41,0,0,1-3.23-7.86V686.9a10.57,10.57,0,0,1,3.23-8,11.85,11.85,0,0,1,8.59-3.1,11.72,11.72,0,0,1,8.47,3.1,10.61,10.61,0,0,1,3.23,8v17.67a10.45,10.45,0,0,1-3.23,7.86A11.69,11.69,0,0,1,182.56,715.54Zm0-8.16c1.38,0,2.07-.86,2.07-2.56V686.66c0-1.79-.69-2.68-2.07-2.68s-2.2.89-2.2,2.68v18.16C180.36,706.52,181.09,707.38,182.56,707.38Zm46.3,56.42a11.88,11.88,0,0,1-8.59-3.11,10.45,10.45,0,0,1-3.23-7.86V735.16a10.59,10.59,0,0,1,3.23-8,11.88,11.88,0,0,1,8.59-3.11,11.71,11.71,0,0,1,8.47,3.11,10.59,10.59,0,0,1,3.23,8v17.67a10.45,10.45,0,0,1-3.23,7.86A11.71,11.71,0,0,1,228.86,763.8Zm0-8.17c1.38,0,2.07-.85,2.07-2.56V734.92c0-1.79-.69-2.68-2.07-2.68s-2.19.89-2.19,2.68v18.15C226.67,754.78,227.4,755.63,228.86,755.63Z"/><path class="cls-2" d="M480.81,351.19a2.32,2.32,0,0,1-2-.92,1.36,1.36,0,0,1-.06-1.76l58.73-81.77c1.06-1.38,2-2.07,2.8-2.07h6.1a2.5,2.5,0,0,1,2.07.91,1.25,1.25,0,0,1,0,1.77L489.7,349.12c-.89,1.38-1.82,2.07-2.8,2.07Zm9.75-47.65a11.82,11.82,0,0,1-8.59-3.11,10.41,10.41,0,0,1-3.23-7.86V274.9a10.57,10.57,0,0,1,3.23-8,11.85,11.85,0,0,1,8.59-3.1,11.72,11.72,0,0,1,8.47,3.1,10.61,10.61,0,0,1,3.23,8v17.67a10.45,10.45,0,0,1-3.23,7.86A11.69,11.69,0,0,1,490.56,303.54Zm0-8.16c1.38,0,2.07-.86,2.07-2.56V274.66c0-1.79-.69-2.68-2.07-2.68s-2.2.89-2.2,2.68v18.16C488.36,294.52,489.09,295.38,490.56,295.38Zm46.3,56.42a11.88,11.88,0,0,1-8.59-3.11,10.45,10.45,0,0,1-3.23-7.86V323.16a10.59,10.59,0,0,1,3.23-8,11.88,11.88,0,0,1,8.59-3.11,11.71,11.71,0,0,1,8.47,3.11,10.59,10.59,0,0,1,3.23,8v17.67a10.45,10.45,0,0,1-3.23,7.86A11.71,11.71,0,0,1,536.86,351.8Zm0-8.17c1.38,0,2.07-.85,2.07-2.56V322.92c0-1.79-.69-2.68-2.07-2.68s-2.19.89-2.19,2.68v18.15C534.67,342.78,535.4,343.63,536.86,343.63Z"/><path class="cls-2" d="M891.81,660.19a2.32,2.32,0,0,1-2-.92,1.36,1.36,0,0,1-.06-1.76l58.73-81.77c1.06-1.38,2-2.07,2.8-2.07h6.1a2.5,2.5,0,0,1,2.07.91,1.25,1.25,0,0,1,0,1.77L900.7,658.12c-.89,1.38-1.82,2.07-2.8,2.07Zm9.75-47.65a11.82,11.82,0,0,1-8.59-3.11,10.41,10.41,0,0,1-3.23-7.86V583.9a10.57,10.57,0,0,1,3.23-8,11.85,11.85,0,0,1,8.59-3.1,11.72,11.72,0,0,1,8.47,3.1,10.61,10.61,0,0,1,3.23,8v17.67a10.45,10.45,0,0,1-3.23,7.86A11.69,11.69,0,0,1,901.56,612.54Zm0-8.16c1.38,0,2.07-.86,2.07-2.56V583.66c0-1.79-.69-2.68-2.07-2.68s-2.2.89-2.2,2.68v18.16C899.36,603.52,900.09,604.38,901.56,604.38Zm46.3,56.42a11.88,11.88,0,0,1-8.59-3.11,10.45,10.45,0,0,1-3.23-7.86V632.16a10.59,10.59,0,0,1,3.23-8,11.88,11.88,0,0,1,8.59-3.11,11.71,11.71,0,0,1,8.47,3.11,10.59,10.59,0,0,1,3.23,8v17.67a10.45,10.45,0,0,1-3.23,7.86A11.71,11.71,0,0,1,947.86,660.8Zm0-8.17c1.38,0,2.07-.85,2.07-2.56V631.92c0-1.79-.69-2.68-2.07-2.68s-2.19.89-2.19,2.68v18.15C945.67,651.78,946.4,652.63,947.86,652.63Z"/></g></g></svg>