<svg xmlns="http://www.w3.org/2000/svg" viewBox="0 0 174.85 115.64"><defs><style>.cls-1,.cls-5{fill:#0092d2;}.cls-1{opacity:0.31;}.cls-2{fill:#f6f6f6;}.cls-3{fill:#003d74;}.cls-4,.cls-8{fill:#fff;}.cls-6{opacity:0.26;}.cls-7{fill:#36c38c;}.cls-8{opacity:0.25;}</style></defs><g id="Слой_2" data-name="Слой 2"><g id="Слой_1-2" data-name="Слой 1"><circle class="cls-1" cx="101.17" cy="58.42" r="55.45"/><path class="cls-1" d="M45.81,23.89a5.1,5.1,0,1,1-5.1-5.09A5.09,5.09,0,0,1,45.81,23.89Z"/><circle class="cls-1" cx="150.82" cy="4.47" r="4.47"/><path class="cls-1" d="M174.85,48.08a3,3,0,1,1-3-3A3,3,0,0,1,174.85,48.08Z"/><path class="cls-1" d="M6.09,87.06a3,3,0,1,1-3-3A3,3,0,0,1,6.09,87.06Z"/><path class="cls-2" d="M145.61,103H44.25V35.08a2.05,2.05,0,0,1,2-2h97.25a2.05,2.05,0,0,1,2.06,2Z"/><path class="cls-3" d="M145.87,103.26H44V35.09a2.32,2.32,0,0,1,2.32-2.32h97.25a2.32,2.32,0,0,1,2.32,2.32Zm-101.36-.52H145.35V35.09a1.8,1.8,0,0,0-1.8-1.8H46.3a1.79,1.79,0,0,0-1.79,1.8Z"/><rect class="cls-2" x="88.42" y="99.13" width="13.01" height="1.04"/><path class="cls-3" d="M101.7,100.44H88.16V98.87H101.7Zm-13-.53h12.49V99.4H88.68Z"/><path class="cls-2" d="M95.72,35.92a.79.79,0,1,1-.79-.75A.78.78,0,0,1,95.72,35.92Z"/><path class="cls-3" d="M94.93,36.93a1,1,0,1,1,1-1A1,1,0,0,1,94.93,36.93Zm0-1.5a.49.49,0,1,0,.53.49A.51.51,0,0,0,94.93,35.43Z"/><path class="cls-3" d="M156.35,115.29h-123c-1.33,0-2.42-.72-2.42-1.62v-2.54c0-.25.31-.45.69-.45H158.19c.37,0,.68.2.68.45v2.47C158.87,114.53,157.74,115.29,156.35,115.29Z"/><path class="cls-3" d="M156.35,115.55h-123c-1.5,0-2.68-.82-2.68-1.88v-2.54c0-.4.42-.72.95-.72H158.19c.53,0,.94.32.94.72v2.47C159.13,114.7,157.91,115.55,156.35,115.55ZM31.63,110.94c-.26,0-.42.12-.42.19v2.54c0,.74,1,1.36,2.15,1.36h123c1.22,0,2.26-.65,2.26-1.43v-2.47c0-.07-.16-.19-.42-.19Z"/><rect class="cls-4" x="48.73" y="38.58" width="92.4" height="59.17" rx="2.25"/><path class="cls-3" d="M138.88,98H51a2.5,2.5,0,0,1-2.5-2.5V40.83a2.5,2.5,0,0,1,2.5-2.5h87.9a2.5,2.5,0,0,1,2.5,2.5V95.5A2.5,2.5,0,0,1,138.88,98ZM51,38.83a2,2,0,0,0-2,2V95.5a2,2,0,0,0,2,2h87.9a2,2,0,0,0,2-2V40.83a2,2,0,0,0-2-2Z"/><path class="cls-5" d="M140.72,42.54V41a2.15,2.15,0,0,0-2.23-2.06H51.26A2.15,2.15,0,0,0,49,41v1.57Z"/><path class="cls-4" d="M133,40.84a.52.52,0,0,1-.52.52.53.53,0,1,1,.52-.52Z"/><circle class="cls-4" cx="134.54" cy="40.84" r="0.52"/><circle class="cls-4" cx="136.62" cy="40.84" r="0.52"/><rect class="cls-5" x="56.59" y="49.07" width="75.92" height="41.04"/><polygon class="cls-2" points="44.64 102.8 31.34 110.62 31.34 110.62 158.19 110.56 145.94 102.83 44.64 102.8"/><path class="cls-3" d="M31.41,110.88h-.07v-.26l-.14-.23,13.37-7.85h.07l101.37,0,13.08,8.25Zm13.3-7.82-12.41,7.3,125-.06-11.42-7.2Z"/><g class="cls-6"><polygon class="cls-2" points="61.44 102.8 52.6 108 52.6 108 136.93 107.96 128.78 102.82 61.44 102.8"/><path class="cls-3" d="M51.63,108.26l9.74-5.72,67.49,0,9,5.66Zm9.88-5.2-7.95,4.68,82.46,0-7.31-4.61Z"/></g><path class="cls-3" d="M140.75,42.82H70a.27.27,0,0,1,0-.54h70.8a.27.27,0,0,1,0,.54Z"/><path class="cls-3" d="M126.76,33.23v-9c0-4.8,3.54-8.71,7.89-8.71H141c4.34,0,7.88,3.91,7.88,8.71v9c0,4.8-3.54,8.71-7.88,8.71h-6.37C130.3,41.94,126.76,38,126.76,33.23Zm7.89-13.61a4.4,4.4,0,0,0-4.17,4.6v9a4.41,4.41,0,0,0,4.17,4.61H141a4.41,4.41,0,0,0,4.16-4.61v-9a4.4,4.4,0,0,0-4.16-4.6Z"/><path class="cls-4" d="M141,42.19h-6.38c-4.48,0-8.13-4-8.13-9v-9c0-4.94,3.65-9,8.13-9H141c4.48,0,8.13,4,8.13,9v9C149.15,38.17,145.5,42.19,141,42.19Zm-6.38-26.43c-4.2,0-7.63,3.8-7.63,8.46v9c0,4.67,3.43,8.46,7.63,8.46H141c4.2,0,7.63-3.79,7.63-8.46v-9c0-4.66-3.43-8.46-7.63-8.46ZM141,38.09h-6.38a4.66,4.66,0,0,1-4.41-4.86v-9a4.65,4.65,0,0,1,4.41-4.85H141a4.65,4.65,0,0,1,4.41,4.85v9A4.66,4.66,0,0,1,141,38.09Zm-6.38-18.22a4.15,4.15,0,0,0-3.91,4.35v9a4.16,4.16,0,0,0,3.91,4.36H141a4.16,4.16,0,0,0,3.91-4.36v-9A4.15,4.15,0,0,0,141,19.87Z"/><rect class="cls-7" x="121.73" y="30.17" width="32.19" height="26.73" rx="3.75"/><path class="cls-3" d="M150.85,57.15h-9a.25.25,0,0,1,0-.5h9a2.83,2.83,0,0,0,2.83-2.83V35.89a.25.25,0,1,1,.5,0V53.82A3.34,3.34,0,0,1,150.85,57.15Z"/><rect class="cls-8" x="123.93" y="33.83" width="27.79" height="20.7" rx="3.75"/><path class="cls-3" d="M134.07,41.22a3.76,3.76,0,1,1,4.85,3.58v4.86h-2.18V44.8A3.75,3.75,0,0,1,134.07,41.22Z"/><path class="cls-3" d="M167.83,115.64H22.27a.42.42,0,0,1,0-.84H167.83a.42.42,0,1,1,0,.84Z"/><path class="cls-5" d="M159.91,33.37a6.06,6.06,0,1,1-6-6.06A6.05,6.05,0,0,1,159.91,33.37Z"/><path class="cls-3" d="M148.12,39.1a.26.26,0,0,1,.37-.37,7.69,7.69,0,1,0,0-10.88.26.26,0,0,1-.37-.37,8.22,8.22,0,1,1,0,11.62Z"/><path class="cls-4" d="M153.77,36.66a.8.8,0,0,1-.57-.21.69.69,0,0,1,0-1,.84.84,0,0,1,.57-.2.8.8,0,0,1,.57.21.7.7,0,0,1,0,1A.77.77,0,0,1,153.77,36.66Zm.69-5.74-.12,3.14a.59.59,0,0,1-.58.56h0a.58.58,0,0,1-.58-.56l-.12-3.14a.58.58,0,0,1,.58-.6h.24A.58.58,0,0,1,154.46,30.92Z"/><path class="cls-4" d="M85.82,64.63v-.26l7.52,13.94a1.77,1.77,0,0,0,.75.64,2.57,2.57,0,0,0,1.06.2h-5.1a3.57,3.57,0,0,1-1.55-.33A5.75,5.75,0,0,1,87.15,78a4.51,4.51,0,0,1-1-1.26,3.63,3.63,0,0,1-.36-1.51Zm1.78-3.17a5.34,5.34,0,0,1,.9-.51,3.56,3.56,0,0,1,1.55-.32h10.2a3.56,3.56,0,0,1,1.55.32,5.34,5.34,0,0,1,.9.51L95.15,75.37Zm16.84,2.91c0,.1,0,.16,0,.26V75.18a3.25,3.25,0,0,1-.38,1.51,4,4,0,0,1-1,1.26,5,5,0,0,1-1.32.87,3.57,3.57,0,0,1-1.55.33h-5.1a2.52,2.52,0,0,0,1-.2,1.75,1.75,0,0,0,.74-.64Z"/></g></g></svg>