<svg xmlns="http://www.w3.org/2000/svg" xmlns:xlink="http://www.w3.org/1999/xlink" viewBox="0 0 163.23 115.64"><defs><style>.cls-1,.cls-10,.cls-5{fill:#fff;}.cls-1{opacity:0.3;}.cls-2,.cls-6{fill:#0092d2;}.cls-2{opacity:0.31;}.cls-3{fill:#f6f6f6;}.cls-4{fill:#003d74;}.cls-7{opacity:0.26;}.cls-8{fill:#36c38b;}.cls-9{clip-path:url(#clip-path);}.cls-10{fill-rule:evenodd;opacity:0.8;}</style><clipPath id="clip-path"><path class="cls-1" d="M154.11,33.39a14,14,0,1,1-14-14A14,14,0,0,1,154.11,33.39Z"/></clipPath></defs><g id="Слой_2" data-name="Слой 2"><g id="Слой_1-2" data-name="Слой 1"><circle class="cls-2" cx="94.44" cy="58.42" r="55.45"/><path class="cls-2" d="M10.19,32.77a5.1,5.1,0,1,1-5.1-5.1A5.09,5.09,0,0,1,10.19,32.77Z"/><circle class="cls-2" cx="142.66" cy="3.04" r="3.04"/><path class="cls-2" d="M163.1,84a3,3,0,1,1-3-3A3,3,0,0,1,163.1,84Z"/><path class="cls-2" d="M27,75.37a3,3,0,1,1-3-3A3,3,0,0,1,27,75.37Z"/><path class="cls-3" d="M138.88,103H37.51V35.08a2.06,2.06,0,0,1,2.06-2h97.25a2.05,2.05,0,0,1,2.06,2Z"/><path class="cls-4" d="M139.14,103.26H37.25V35.09a2.32,2.32,0,0,1,2.32-2.32h97.25a2.32,2.32,0,0,1,2.32,2.32Zm-101.36-.52H138.62V35.09a1.8,1.8,0,0,0-1.8-1.8H39.57a1.79,1.79,0,0,0-1.79,1.8Z"/><rect class="cls-3" x="81.69" y="99.13" width="13.01" height="1.04"/><path class="cls-4" d="M95,100.44H81.43V98.87H95Zm-13-.53H94.44V99.4H82Z"/><path class="cls-3" d="M89,35.92a.79.79,0,1,1-.79-.75A.78.78,0,0,1,89,35.92Z"/><path class="cls-4" d="M88.2,36.93a1,1,0,1,1,1-1A1,1,0,0,1,88.2,36.93Zm0-1.5a.49.49,0,1,0,.52.49A.51.51,0,0,0,88.2,35.43Z"/><path class="cls-4" d="M149.61,115.29h-123c-1.34,0-2.42-.72-2.42-1.62v-2.54c0-.25.31-.45.68-.45H151.46c.37,0,.68.2.68.45v2.47C152.14,114.53,151,115.29,149.61,115.29Z"/><path class="cls-4" d="M149.61,115.55h-123c-1.5,0-2.68-.82-2.68-1.88v-2.54c0-.4.41-.72.94-.72H151.46a.85.85,0,0,1,.94.72v2.47C152.4,114.7,151.18,115.55,149.61,115.55ZM24.89,110.94c-.26,0-.42.12-.42.19v2.54c0,.74,1,1.36,2.16,1.36h123c1.23,0,2.26-.65,2.26-1.43v-2.47c0-.07-.15-.19-.41-.19Z"/><rect class="cls-5" x="41.99" y="38.58" width="92.4" height="59.17" rx="2.25"/><path class="cls-4" d="M132.15,98H44.25a2.51,2.51,0,0,1-2.51-2.5V40.83a2.51,2.51,0,0,1,2.51-2.5h87.9a2.5,2.5,0,0,1,2.5,2.5V95.5A2.5,2.5,0,0,1,132.15,98ZM44.25,38.83a2,2,0,0,0-2,2V95.5a2,2,0,0,0,2,2h87.9a2,2,0,0,0,2-2V40.83a2,2,0,0,0-2-2Z"/><path class="cls-6" d="M134,42.54V41a2.15,2.15,0,0,0-2.24-2.06H44.53A2.15,2.15,0,0,0,42.3,41v1.57Z"/><path class="cls-5" d="M126.24,40.84a.52.52,0,1,1-.52-.53A.52.52,0,0,1,126.24,40.84Z"/><circle class="cls-5" cx="127.8" cy="40.84" r="0.52"/><circle class="cls-5" cx="129.89" cy="40.84" r="0.52"/><rect class="cls-6" x="49.86" y="49.07" width="75.92" height="41.04"/><polygon class="cls-3" points="37.91 102.8 24.61 110.62 24.61 110.62 151.46 110.56 139.21 102.83 37.91 102.8"/><path class="cls-4" d="M24.68,110.88h-.07v-.26l-.13-.23,13.36-7.85h.08l101.37,0,13.08,8.25ZM38,103.06l-12.41,7.3,125-.06-11.42-7.2Z"/><g class="cls-7"><polygon class="cls-3" points="54.71 102.8 45.86 108 45.86 108 130.2 107.96 122.05 102.82 54.71 102.8"/><path class="cls-4" d="M44.9,108.26l9.74-5.72,67.49,0,9,5.66Zm9.88-5.2-8,4.68,82.46,0L122,103.09Z"/></g><path class="cls-4" d="M134,42.82H63.22a.27.27,0,1,1,0-.54H134a.27.27,0,1,1,0,.54Z"/><path class="cls-4" d="M161.1,115.64H15.54a.42.42,0,1,1,0-.84H161.1a.42.42,0,0,1,0,.84Z"/><path class="cls-8" d="M157,33.4a16.87,16.87,0,1,1-16.86-16.87A16.86,16.86,0,0,1,157,33.4Z"/><path class="cls-4" d="M124.17,49.47a.73.73,0,0,1,1-1,21.43,21.43,0,1,0,0-30.3.74.74,0,0,1-1-1,22.89,22.89,0,1,1,0,32.37Z"/><path class="cls-1" d="M154.11,33.39a14,14,0,1,1-14-14A14,14,0,0,1,154.11,33.39Z"/><g class="cls-9"><path class="cls-10" d="M155.76,47.6a5.5,5.5,0,0,0-.81-1.41,5.37,5.37,0,0,0-2-1.54,3.56,3.56,0,0,0-.7-.29c-.77-.18-1.54-.39-2.31-.61a1,1,0,0,1-.71-.25,11.44,11.44,0,0,1-1.69-.72.78.78,0,0,1-.49-.23c-.09,0-.18-.09-.27-.11a1.16,1.16,0,0,1-.68-.44,3.53,3.53,0,0,1-.32-.21.41.41,0,0,1-.24-.31,5.69,5.69,0,0,0-.16-.59,6.18,6.18,0,0,1-.12-.62c0-.11-.05-.21-.18-.25s-.24,0-.35,0-.37,0-.4-.27a5.07,5.07,0,0,1-.09-.54c0-.39-.08-.81.3-1.1a14.82,14.82,0,0,0,1-2.81c.06-.22.16-.4.45-.41a.39.39,0,0,0,.37-.31,10.7,10.7,0,0,1,.6-1.67,7.57,7.57,0,0,0,.29-1.16,1.93,1.93,0,0,0,0-.24.16.16,0,0,0-.05-.09l0,0c0-.18,0-.35,0-.52a.52.52,0,0,0-.37-.51c-.21-.05-.25-.17-.24-.37.05-.76.09-1.52.14-2.28a.11.11,0,0,0,0-.08s0,0,0,0c0-.23,0-.46-.07-.69a3.83,3.83,0,0,0-.41-1.6,5.56,5.56,0,0,0-2.31-2.17,9.94,9.94,0,0,0-2.62-.8,5.63,5.63,0,0,0-5,1.28.06.06,0,0,1,0,0h0a1,1,0,0,0-.38.42,3.47,3.47,0,0,1-.69.83,1.89,1.89,0,0,0-.68,1.65l-.05,0-.06.08a7.41,7.41,0,0,0,0,1.63,6.62,6.62,0,0,1,.17,1.4.42.42,0,0,1-.3.52.76.76,0,0,0-.48.68,2.22,2.22,0,0,0,0,1c.13.45.26.89.4,1.33a3.62,3.62,0,0,1,.45,1.21.61.61,0,0,0,.41.53.52.52,0,0,1,.36.41c.07.33.19.64.29,1a1.83,1.83,0,0,1,.31.78.3.3,0,0,0,0,.1,3.15,3.15,0,0,1,.49,2.83c-.19.2-.38,0-.57,0s-.34,0-.39.21c-.14.45-.22.92-.36,1.37a.86.86,0,0,1-.43.54,8.71,8.71,0,0,1-1.59.65,5,5,0,0,1-1.22.49c-.8.3-1.64.47-2.47.69a7.82,7.82,0,0,0-2.83,1.25,5.11,5.11,0,0,0-1.2,1.64,8.61,8.61,0,0,1,0,.88c0,.23,0,.28.28.28q14.92,0,29.85,0C155.86,47.89,155.82,47.76,155.76,47.6Z"/></g><path class="cls-5" d="M79.09,64.63v-.26l7.52,13.94a1.75,1.75,0,0,0,.74.64,2.62,2.62,0,0,0,1.07.2h-5.1a3.54,3.54,0,0,1-1.55-.33A5.75,5.75,0,0,1,80.42,78a4.51,4.51,0,0,1-1-1.26,3.63,3.63,0,0,1-.36-1.51Zm1.78-3.17a5.34,5.34,0,0,1,.9-.51,3.53,3.53,0,0,1,1.55-.32h10.2a3.52,3.52,0,0,1,1.54.32,5.06,5.06,0,0,1,.91.51L88.42,75.37Zm16.84,2.91c0,.1,0,.16,0,.26V75.18a3.38,3.38,0,0,1-.38,1.51,4,4,0,0,1-1,1.26,4.93,4.93,0,0,1-1.33.87,3.53,3.53,0,0,1-1.54.33h-5.1a2.56,2.56,0,0,0,1-.2,1.75,1.75,0,0,0,.74-.64Z"/></g></g></svg>